<?xml version="1.0" encoding="UTF-8" standalone="no"?>
<svg
   xmlns:dc="http://purl.org/dc/elements/1.1/"
   xmlns:cc="http://creativecommons.org/ns#"
   xmlns:rdf="http://www.w3.org/1999/02/22-rdf-syntax-ns#"
   xmlns:svg="http://www.w3.org/2000/svg"
   xmlns="http://www.w3.org/2000/svg"
   xmlns:sodipodi="http://sodipodi.sourceforge.net/DTD/sodipodi-0.dtd"
   xmlns:inkscape="http://www.inkscape.org/namespaces/inkscape"
   width="256"
   height="295"
   viewBox="0 0 256 295"
   version="1.1"
   preserveAspectRatio="xMidYMid"
   id="svg24"
   sodipodi:docname="html-5.svg"
   inkscape:version="0.92.2 (5c3e80d, 2017-08-06)">
  <metadata
     id="metadata30">
    <rdf:RDF>
      <cc:Work
         rdf:about="">
        <dc:format>image/svg+xml</dc:format>
        <dc:type
           rdf:resource="http://purl.org/dc/dcmitype/StillImage" />
        <dc:title></dc:title>
      </cc:Work>
    </rdf:RDF>
  </metadata>
  <defs
     id="defs28" />
  <sodipodi:namedview
     pagecolor="#ffffff"
     bordercolor="#666666"
     borderopacity="1"
     objecttolerance="10"
     gridtolerance="10"
     guidetolerance="10"
     inkscape:pageopacity="0"
     inkscape:pageshadow="2"
     inkscape:window-width="1366"
     inkscape:window-height="746"
     id="namedview26"
     showgrid="false"
     inkscape:zoom="1.3074792"
     inkscape:cx="89.740406"
     inkscape:cy="230.24107"
     inkscape:window-x="-8"
     inkscape:window-y="-8"
     inkscape:window-maximized="1"
     inkscape:current-layer="svg24" />
  <g
     id="g22"
     transform="translate(0,-66)">
    <path
       d="M 255.55481,70.765714 232.31367,331.12545 127.84387,360.08791 23.661714,331.16624 0.44518681,70.765714 Z"
       id="path2"
       inkscape:connector-curvature="0"
       style="fill:#e44d26" />
    <path
       d="m 128,337.95024 84.4167,-23.4036 19.8611,-222.489321 H 128 Z"
       id="path4"
       inkscape:connector-curvature="0"
       style="fill:#f16529" />
    <path
       d="M 82.82022,155.93213 H 128 v -31.9374 H 47.917011 l 0.764483,8.56826 7.849495,88.00984 H 128 v -31.9367 H 85.738901 Z"
       id="path6"
       inkscape:connector-curvature="0"
       style="fill:#ebebeb" />
    <path
       d="m 90.017758,236.54189 h -32.05978 l 4.474374,50.14576 65.420658,18.16123 0.14699,-0.0408 v -33.22796 l -0.13996,0.0373 -35.568524,-9.60422 -2.273758,-25.4713 z"
       id="path8"
       inkscape:connector-curvature="0"
       style="fill:#ebebeb" />
    <path
       d="m 127.88958,220.57283 h 39.32695 l -3.70708,41.41996 -35.61987,9.61407 v 33.22655 l 65.47271,-18.14576 0.48035,-5.39569 7.50488,-84.07983 0.77925,-8.576 h -74.23719 z"
       id="path18"
       inkscape:connector-curvature="0"
       style="fill:#ffffff" />
    <path
       d="m 127.88958,155.85407 v 0.0781 h 77.14321 l 0.6407,-7.17855 1.45512,-16.19059 0.76379,-8.56826 h -80.00282 v 31.85934 z"
       id="path20"
       inkscape:connector-curvature="0"
       style="fill:#ffffff" />
  </g>
</svg>
