<?xml version="1.0" encoding="utf-8"?>
<!-- Generator: Adobe Illustrator 16.0.0, SVG Export Plug-In . SVG Version: 6.00 Build 0)  -->
<!DOCTYPE svg PUBLIC "-//W3C//DTD SVG 1.1//EN" "http://www.w3.org/Graphics/SVG/1.1/DTD/svg11.dtd">
<svg version="1.1" id="Capa_1" xmlns="http://www.w3.org/2000/svg" xmlns:xlink="http://www.w3.org/1999/xlink" x="0px" y="0px"
	 width="800px" height="800px" viewBox="0 0 800 800" enable-background="new 0 0 800 800" xml:space="preserve">
<g>
	<path fill="#FFFFFF" d="M389.437-335.873h10.171v42.76h-10.171V-335.873z"/>
	<path fill="#FFFFFF" d="M440.635-327.493h-12.657v34.38h-10.166v-34.38h-12.657v-8.38h35.48V-327.493z"/>
	<path fill="#FFFFFF" d="M485.476-314.549c0,12.829-8.496,21.437-21.265,21.437h-18.029v-42.76h18.029
		C476.979-335.873,485.476-327.379,485.476-314.549z M474.957-314.549c0-7.801-4.216-12.943-10.576-12.943h-8.03v26.003h8.03
		C470.741-301.49,474.957-306.747,474.957-314.549z"/>
	<path fill="#FFFFFF" d="M523.323-301.49v8.377h-30.916v-42.76h30.455v8.38h-20.285v8.553h18.26v8.377h-18.26v9.073H523.323z"/>
	<path fill="#FFFFFF" d="M559.089-301.49v8.377h-28.314v-42.76h10.17v34.383H559.089z"/>
	<path fill="#FFFFFF" d="M594.647-300.219h-18.091l-2.824,7.107h-10.87l18.031-42.76h9.424l17.906,42.76h-10.805L594.647-300.219z
		 M591.351-308.596l-5.716-14.679l-5.78,14.679H591.351z"/>
</g>
<g>
	<linearGradient id="SVGID_1_" gradientUnits="userSpaceOnUse" x1="173.6289" y1="209.792" x2="712.4444" y2="550.4011">
		<stop  offset="0.0195" style="stop-color:#2982BD"/>
		<stop  offset="0.239" style="stop-color:#2574A8"/>
		<stop  offset="0.4976" style="stop-color:#5E93B5"/>
		<stop  offset="0.7512" style="stop-color:#3097DB"/>
		<stop  offset="1" style="stop-color:#20638F"/>
	</linearGradient>
	<path fill-rule="evenodd" clip-rule="evenodd" fill="url(#SVGID_1_)" d="M626.884,361.763c0,33.91-7.93,65.99-22.041,94.436
		c-24.194,48.76-66.504,86.934-118.138,105.66H341.378c-51.673-18.748-94.011-56.963-118.157-105.796
		c-14.092-28.424-21.999-60.433-21.999-94.3c0-117.532,95.287-212.82,212.819-212.82
		C531.596,148.943,626.884,244.231,626.884,361.763z"/>
	<linearGradient id="SVGID_2_" gradientUnits="userSpaceOnUse" x1="647.0938" y1="445.9238" x2="142.446" y2="262.4155">
		<stop  offset="0" style="stop-color:#AD3A8F"/>
		<stop  offset="0.1951" style="stop-color:#D19BB7"/>
		<stop  offset="0.4341" style="stop-color:#C5769F"/>
		<stop  offset="0.6829" style="stop-color:#BE68A2"/>
		<stop  offset="0.8195" style="stop-color:#EDB0D0"/>
		<stop  offset="1" style="stop-color:#AD3A8F"/>
	</linearGradient>
	<path fill-rule="evenodd" clip-rule="evenodd" fill="url(#SVGID_2_)" d="M616.229,361.172c0,33.567-8.172,65.229-22.665,93.1
		c-27.531,53.016-77.867,92.248-137.999,104.805h-83.021c-60.132-12.557-110.438-51.821-138.001-104.805
		c-14.492-27.871-22.664-59.533-22.664-93.1c0-111.634,90.543-202.146,202.176-202.146
		C525.717,159.026,616.229,249.538,616.229,361.172z"/>
	<linearGradient id="SVGID_3_" gradientUnits="userSpaceOnUse" x1="105.4243" y1="354.3647" x2="646.3401" y2="696.3016">
		<stop  offset="0.0195" style="stop-color:#2982BD"/>
		<stop  offset="0.239" style="stop-color:#2574A8"/>
		<stop  offset="0.4976" style="stop-color:#5E93B5"/>
		<stop  offset="0.7512" style="stop-color:#3097DB"/>
		<stop  offset="1" style="stop-color:#20638F"/>
	</linearGradient>
	<path fill-rule="evenodd" clip-rule="evenodd" fill="url(#SVGID_3_)" d="M642.091,506.863v85.23c0,7.561-6.954,13.715-15.55,13.715
		H201.57c-8.565,0-15.553-6.154-15.553-13.715v-85.23c0-6.366,4.857-11.665,11.45-13.256c1.314-0.337,2.693-0.49,4.103-0.49h424.971
		c1.643,0,3.18,0.215,4.657,0.644C637.531,495.508,642.091,500.709,642.091,506.863z"/>
	<g>
		<g>
			<g>
				<path fill-rule="evenodd" clip-rule="evenodd" fill="#FFFFFF" d="M511.877,391.632c-1.241-11.531-10.023-20.968-21.682-23.346
					c-1.457-0.279-2.992-0.466-4.425-1.686c4.671-3.189,9.549-5.603,12.954-10.006c1.762-2.287,3.55-4.568,5.348-6.849
					c0.023-4.011,2.035-7.705,1.509-11.847c-1.397-10.619-6.778-19.17-13.166-27.22c-6.842-8.577-11.978-17.717-11.302-29.422
					c0.252-4.254,0.698-8.494,0.858-12.752c0.095-2.516-0.865-4.507-3.311-5.354c-2.256-0.78-4.268-0.487-6.034,1.504
					c-3.595,4.068-7.708,7.628-10.896,12.057c-2.079,2.875-3.544,1.984-4.639-0.671c-1.495-3.69-2.79-7.479-4.253-11.194
					c-2.512-6.342-4.215-13.248-10.997-16.601c-0.349-0.293-0.698-0.564-1.054-0.823c-2.541-1.196-5.057-1.559-7.592,0.041
					c-1.097,0.447-1.598,1.336-1.693,2.506c-0.074,0.706,0.318,1.126,0.832,1.473c0.752,0.905,2.595-0.02,2.777,1.454
					c0.309,2.483,2.208,2.896,3.897,3.332c3.264,0.832,4.549,3.005,5.299,6.167c1.177,4.951,1.31,10.146,3.229,14.881
					c3.512,8.646-1.348,14.13-7.832,17.55c-3.04,1.611-7.558,0.147-8.682-3.284c-1.125-3.426,1.88-6.746,2.738-9.866
					c0.896-3.271,0.498-6.576-0.19-9.837c-0.244-1.166-0.435-2.512-0.929-3.603c-0.162-0.358-2.323-2.953-2.323-2.888
					c0.02-0.095,0.04-0.202,0.067-0.302c-0.25-1.11-1.095-1.674-1.975-2.2c-3.66-2.171-8.876,0.027-11.038,3.255
					c-2.684,4.022-3.27,8.348-2.122,12.967c0.915,3.758,4.95,10.041,1.718,13.49c-1.384,1.477-3.029,2.488-4.873,1.748
					c-4.088-1.645-7.348-4.537-9.96-8.119c-1.067-1.486-0.668-3.269-0.436-5.043c0.766-5.949,2.377-11.738,3.359-17.654
					c0.493-2.979,1.517-5.644,3.315-8.006c0.026-0.206,0.026-0.412,0.052-0.603c1.406-0.315,2.816-0.631,4.22-0.945
					c0.818-0.943,3.957-1.269,0.818-3.245c1.017,0.415,1.667-0.536,2.524-0.723c1.31-0.235,2.762-0.688,2.494-2.373
					c-0.247-1.524-1.886-1.09-2.925-1.384c-4.097-1.185-7.228,1.673-10.797,2.771c-2.877,0.639-3.484,3.195-4.501,5.468
					c-2.036,4.568-3.026,9.494-5.383,14.009c-2.359,4.509-4.855,9.163-5.257,14.51c-1.093,6.888,2.898,11.62,6.735,16.399
					c1.336,1.275,2.822,2.37,4.356,3.371c2.105,1.368,4.439,2.459,6.311,4.207c0.855,0.805,1.633,1.708,2.019,2.843
					c0.755,2.276,1.002,4.699,1.645,7.008c0.592,2.067,1.308,4.083,1.833,6.174c1.021,4.17,0.52,8.031-1.241,11.906
					c-1.279,2.792-3.188,5.229-3.837,8.31c-1.072,4.978-4.07,7.29-8.583,8.479c-8.013,2.078-14.306,8.249-22.438,10.12
					c-0.38,0.119-0.755,0.263-1.116,0.442c-9.415,2.25-18.822,2.594-28.217-0.14c-8.996-2.193-16.744-6.179-21.199-15.034
					c-1.521-3.255-3.044-6.575-3.515-10.168c-1.731-13.304-1.266-26.398,3.858-39c2.989-9.129,4.554-18.585,6.112-28.045
					c1.035-9.8,0.259-19.351-3.628-28.499c-0.13-0.404-0.283-0.797-0.468-1.168c-1.139-2.387-2.098-4.811-2.937-7.317
					c-0.116-0.342-0.242-0.692-0.392-1.033c-0.422-0.972-0.899-1.927-1.204-2.95c-0.319-1.133-1.055-2.497-0.155-3.399
					c1.252-1.279,2.236,0.528,3.385,0.828c9.198,2.416,16.602,8.304,24.551,13.139c9.146,5.553,16.259,13.808,24.978,19.954
					c0.453,0.322,0.907,0.677,1.347,1.026c3.104,2.449,5.234,6.06,8.862,7.835c1.649,0.812,3.592,1.868,4.964-0.146
					c1.376-2.015,0.189-3.702-1.384-5.216c-8.087-7.712-15.396-16.31-24.394-23.014c-3.806-2.593-7.151-5.881-11.057-8.269
					c-4.543-2.775-8.422-6.808-13.761-8.221c-1.486-0.818-3.002-1.568-4.44-2.462c-5.494-3.45-11.344-5.822-17.872-6.281
					c-3.25-0.246-4.68,1.28-5.359,4.363c-0.995,4.533,0.521,8.649,1.677,12.84c0.685,1.876,0.767,3.931,1.897,5.656
					c4.333,6.677,6.443,14.148,6.993,22.038c0.618,8.642,0.487,17.267-2.945,25.453c-0.223,2.292-1.42,4.27-2.097,6.414
					c-2.017,6.443-3.082,13.206-6.07,19.312c-0.597,1.214-0.705,2.558-1.034,3.832c-1.306,5.19-1.571,10.565-1.587,15.795
					c-0.065,10.229,3.664,19.66,9.982,27.53c4.397,5.48,9.899,10.705,16.496,13.194c7.076,2.67,14.957,3.26,22.427,3.03
					c1.564-0.046,2.942-1.476,4.077-0.899c-5.604,1.827-10.811,4.925-15.164,9.574c-4.685,4.072-8.766,8.701-12.394,13.778
					c-4.759,6.133-6.698,13.38-7.113,20.958c-0.558,10.204,1.816,19.147,6.786,28.035c3.487,6.255,10.548,9.696,16.727,12.574
					c8.387,3.925,17.938,4.573,26.966,3.142c8.304-1.326,15.278-5.417,22.231-10.04c3.054-2.032,6.853-5.566,10.274-6.571
					c-0.253,0.065,4.284,12.223,4.709,13.237c1.424,3.277,2.714,6.632,4.572,9.703c0.991,1.625,1.276,2.202,2.911,1.021
					c2.143-1.574,4.931-6.336,5.857-8.789c1.431-3.846,2.671-7.859,3.704-11.834c2.048-7.899,2.379-15.414,2.215-23.496
					c-0.061-4.086-1.713-7.943-2.378-11.928c-0.716-4.24,0.554-7.723,1.592-11.761c0.804-3.187,1.133-6.669,2.456-9.689
					c3.733,5.587,6.496,11.644,10.887,16.832c4.505,5.323,10.013,9.564,16.546,11.938c10.095,4.82,20.239,5.674,30.684,0.999
					C507.061,415.63,513.313,404.879,511.877,391.632z M400.768,359.238c1.045-0.51,2.891-1.609,3.206,0.215
					c0.291,1.652,1.614,4.444-1.673,5.226c-4.884,1.159-9.84,1.731-15.017,1.485L400.768,359.238z M397.836,438.383
					c-2.132,1.875-4.669,2.951-7.234,3.979c-9.968,5.427-20.341,8.479-31.69,5.69c-3.079-0.748-5.985-1.952-8.44-4.09
					c-8.006-4.833-11.856-12.513-13.051-21.488c-1.711-12.929,1.922-24.224,11.449-33.257c8.587-8.209,19.189-11.719,30.456-13.75
					c8.239-2.733,16.786-3.048,25.34-3.317c1.673-0.043,1.854,1.16,2.171,2.254c1.812,6.135,3.859,12.216,6.071,18.199
					c1.87,5.058,4.725,10.749,3.697,16.315c-0.492,2.672-1.958,5.146-2.74,7.752c-1.217,3.991-1.707,8.392-4.227,11.825
					C406.371,432.966,401.786,434.896,397.836,438.383z M437.457,337.383c-0.488-0.913-1.493-1.857-1.709-2.886
					c-0.35-1.562,0.092-3.618,0.24-5.203c0.193-2.048,0.434-4.093,0.699-6.135c0.465-3.697,1.255-7.484,3.382-10.583
					c2.168-3.139,5.224-5.451,8.035-7.928c5.395-4.742,9.997-10.174,14.182-16.022c1.868-2.588,3.586-5.287,5.554-7.784
					c0.785-0.988,2.212-3.05,3.705-2.685c1.552,0.384,2.228,3.111,2.665,4.383c1.118,3.31,2.008,6.711,3.04,10.042
					c2.514,8.008,5.712,15.691,9.885,22.949c3.135,5.443,7.087,10.715,8.813,16.871c1.571,5.519,1.056,11.575-1.388,16.756
					c-6.533,13.75-22.927,11.666-35.318,14.02c-4.278,0.815-12.45,2.547-13.649,7.849c-1.215,5.387,7.069,6.61,10.495,6.794
					c8.171,0.408,16.224-1.844,24.23-3.237c5.844-1.01,12.919-2.028,17.797,2.289c4.344,3.841,5.843,10.431,5.873,16.056
					c0.032,5.718-1.714,11.548-6.252,15.164c-4.978,3.967-11.85,4.792-17.95,4.613c-7.196-0.214-14.567-1.948-20.836-5.676
					c-12.826-7.619-16.244-22.08-15.126-36.313c0.466-5.85,1.878-10.979,0.323-16.839c-0.377-1.485,0.189-2.451-1.802-4.259
					 M463.01,369.88c-2.465,1.172-4.958,1.815-7.57,1.776c-0.597-0.019-1.43,0.515-1.622-0.437
					c-0.218-1.102,0.698-1.308,1.495-1.323C457.881,369.854,460.442,369.88,463.01,369.88z"/>
				<path fill-rule="evenodd" clip-rule="evenodd" fill="#FFFFFF" d="M351.28,443.193c-0.102,0.098-0.18,0.193-0.297,0.288
					c-0.167,0.16-0.341,0.319-0.511,0.481c0.214-0.144,0.494-0.218,0.671-0.409C351.216,443.468,351.27,443.35,351.28,443.193z"/>
			</g>
			<g>
				<path fill="#FFFFFF" d="M497.999,515.558c0,0-0.091,0.014-0.28,0.026c-0.211,0.034-0.508,0.061-0.865,0.062
					c-0.713,0.061-1.738,0.102-3.013,0.102c-2.563,0.017-6.177-0.155-10.448-0.763c-2.143-0.319-4.445-0.72-6.854-1.311
					c-2.406-0.535-4.922-1.287-7.483-2.146c-1.286-0.465-2.589-0.898-3.88-1.451c-0.64-0.271-1.3-0.53-1.944-0.804
					c-0.651-0.3-1.306-0.601-1.937-0.894c-1.317-0.568-2.582-1.296-3.888-1.938c-1.271-0.722-2.545-1.438-3.792-2.199
					c-2.488-1.574-4.93-3.236-7.206-5.074c-0.566-0.454-1.129-0.903-1.704-1.35c-0.538-0.482-1.079-0.974-1.623-1.442
					c-0.536-0.479-1.079-0.943-1.602-1.425c-0.516-0.498-1.021-0.995-1.521-1.482c-0.496-0.502-0.988-0.984-1.473-1.476
					c-0.476-0.509-0.938-1.018-1.395-1.522c-0.454-0.5-0.908-0.99-1.364-1.485c-0.435-0.496-0.844-1.017-1.262-1.521
					c-1.685-1.974-3.107-4.009-4.458-5.844c-0.637-0.944-1.228-1.859-1.807-2.744c-0.584-0.858-1.11-1.689-1.584-2.508
					c-0.461-0.806-0.909-1.563-1.317-2.266c-0.199-0.339-0.394-0.676-0.583-0.999c-0.176-0.327-0.327-0.649-0.488-0.941
					c-1.248-2.394-1.95-3.759-1.95-3.759s0.823,1.264,2.263,3.495c0.184,0.29,0.376,0.58,0.573,0.878
					c0.203,0.299,0.423,0.61,0.659,0.932c0.478,0.64,0.979,1.334,1.515,2.074c0.502,0.743,1.103,1.506,1.765,2.297
					c0.634,0.782,1.31,1.61,1.998,2.467c1.488,1.651,3.047,3.455,4.847,5.165c0.444,0.438,0.885,0.899,1.357,1.324
					c0.471,0.42,0.945,0.857,1.431,1.277c0.485,0.432,0.971,0.865,1.456,1.306c0.525,0.411,1.031,0.828,1.57,1.241
					c0.506,0.415,1.031,0.831,1.556,1.253c0.553,0.39,1.104,0.784,1.657,1.184c0.545,0.393,1.104,0.787,1.668,1.173
					c0.58,0.374,1.147,0.735,1.732,1.1c2.304,1.488,4.744,2.775,7.21,3.977c1.231,0.58,2.483,1.111,3.738,1.634
					c1.262,0.458,2.5,0.998,3.771,1.378c0.626,0.213,1.245,0.419,1.879,0.62c0.624,0.186,1.244,0.35,1.873,0.535
					c1.231,0.372,2.492,0.625,3.704,0.924c2.438,0.498,4.826,0.92,7.076,1.152c2.262,0.28,4.409,0.398,6.374,0.456
					c3.954,0.095,7.225-0.149,9.462-0.422c1.123-0.142,1.99-0.278,2.555-0.373c0.281-0.063,0.486-0.103,0.595-0.125
					c0.143-0.04,0.213-0.048,0.213-0.048L497.999,515.558z"/>
				<path fill="#FFFFFF" d="M346.567,515.558c0,0,0.091,0.014,0.286,0.026c0.219,0.034,0.51,0.061,0.854,0.062
					c0.72,0.061,1.745,0.102,3.002,0.102c2.58,0.017,6.188-0.155,10.466-0.763c2.14-0.319,4.44-0.72,6.853-1.311
					c2.405-0.535,4.92-1.287,7.491-2.146c1.271-0.465,2.579-0.898,3.866-1.451c0.637-0.271,1.295-0.53,1.949-0.804
					c0.637-0.3,1.289-0.601,1.945-0.894c1.306-0.568,2.576-1.296,3.876-1.938c1.266-0.722,2.544-1.438,3.798-2.199
					c2.487-1.574,4.926-3.236,7.203-5.074c0.559-0.454,1.132-0.903,1.697-1.35c0.547-0.482,1.091-0.974,1.636-1.442
					c0.538-0.479,1.065-0.943,1.595-1.425c0.52-0.498,1.016-0.995,1.517-1.482c0.498-0.502,0.988-0.984,1.485-1.476
					c0.47-0.509,0.934-1.018,1.391-1.522c0.448-0.5,0.9-0.99,1.352-1.485c0.44-0.496,0.845-1.017,1.265-1.521
					c1.692-1.974,3.11-4.009,4.461-5.844c0.628-0.944,1.234-1.859,1.812-2.744c0.587-0.858,1.118-1.689,1.583-2.508
					c0.47-0.806,0.904-1.563,1.319-2.266c0.195-0.339,0.394-0.676,0.574-0.999c0.172-0.327,0.343-0.649,0.497-0.941
					c1.236-2.394,1.938-3.759,1.938-3.759s-0.825,1.264-2.264,3.495c-0.176,0.29-0.369,0.58-0.562,0.878
					c-0.214,0.299-0.435,0.61-0.665,0.932c-0.462,0.64-0.971,1.334-1.514,2.074c-0.511,0.743-1.111,1.506-1.767,2.297
					c-0.622,0.782-1.303,1.61-2.002,2.467c-1.475,1.651-3.029,3.455-4.841,5.165c-0.45,0.438-0.894,0.899-1.344,1.324
					c-0.474,0.42-0.955,0.857-1.446,1.277c-0.479,0.432-0.969,0.865-1.466,1.306c-0.509,0.411-1.031,0.828-1.54,1.241
					c-0.526,0.415-1.055,0.831-1.561,1.253c-0.573,0.39-1.105,0.784-1.657,1.184c-0.565,0.393-1.111,0.787-1.686,1.173
					c-0.566,0.374-1.151,0.735-1.726,1.1c-2.301,1.488-4.754,2.775-7.197,3.977c-1.247,0.58-2.501,1.111-3.75,1.634
					c-1.262,0.458-2.502,0.998-3.774,1.378c-0.621,0.213-1.25,0.419-1.878,0.62c-0.623,0.186-1.257,0.35-1.88,0.535
					c-1.237,0.372-2.482,0.625-3.701,0.924c-2.447,0.498-4.82,0.92-7.081,1.152c-2.249,0.28-4.403,0.398-6.367,0.456
					c-3.953,0.095-7.211-0.149-9.464-0.422c-1.116-0.142-1.981-0.278-2.551-0.373c-0.285-0.063-0.49-0.103-0.595-0.125
					c-0.134-0.04-0.214-0.048-0.214-0.048L346.567,515.558z"/>
			</g>
		</g>
		<g>
			<path fill="#FFFFFF" d="M252.757,507.233v82.655h-14.046v-82.655H252.757z"/>
			<path fill="#FFFFFF" d="M286.502,519.864h-21.931v-12.631h58.131v12.631h-22.146v70.024h-14.055V519.864z"/>
			<path fill="#FFFFFF" d="M334.652,508.339c6.167-1.105,14.055-1.72,22.388-1.72c14.393,0,24.327,3.189,31.402,9.563
				c7.433,6.509,12,16.315,12,30.413c0,14.72-4.692,25.761-12,32.871c-7.647,7.481-19.876,11.281-34.827,11.281
				c-8.229,0-14.399-0.488-18.963-1.104V508.339z M348.707,578.361c1.932,0.367,4.908,0.367,7.763,0.367
				c18.271,0.123,29.123-10.672,29.123-31.638c0.112-18.27-9.717-28.697-27.298-28.697c-4.454,0-7.656,0.365-9.587,0.855V578.361z"
				/>
			<path fill="#FFFFFF" d="M458.65,553.221h-29.001v24.277h32.431v12.391h-46.489v-82.655h44.767v12.385h-30.708v21.34h29.001
				V553.221z"/>
			<path fill="#FFFFFF" d="M483.1,507.233h14.062v70.025h31.616v12.63H483.1V507.233z"/>
			<path fill="#FFFFFF" d="M558.207,566.466l-6.626,23.423h-14.505l24.678-82.655h17.925l25.009,82.655h-15.079l-6.964-23.423
				H558.207z M580.248,555.06l-6.059-20.358c-1.475-5.021-2.734-10.666-3.873-15.452h-0.233c-1.15,4.786-2.281,10.548-3.653,15.452
				l-5.939,20.358H580.248z"/>
		</g>
	</g>
</g>
</svg>
