<?xml version="1.0" encoding="utf-8"?>
<!-- Generator: Adobe Illustrator 16.0.0, SVG Export Plug-In . SVG Version: 6.00 Build 0)  -->
<!DOCTYPE svg PUBLIC "-//W3C//DTD SVG 1.1//EN" "http://www.w3.org/Graphics/SVG/1.1/DTD/svg11.dtd">
<svg version="1.1" id="Capa_1" xmlns="http://www.w3.org/2000/svg" xmlns:xlink="http://www.w3.org/1999/xlink" x="0px" y="0px"
	 width="800px" height="800px" viewBox="0 0 800 800" enable-background="new 0 0 800 800" xml:space="preserve">
<linearGradient id="SVGID_1_" gradientUnits="userSpaceOnUse" x1="43.6309" y1="220.707" x2="703.5986" y2="637.9019">
	<stop  offset="0.0195" style="stop-color:#2982BD"/>
	<stop  offset="0.239" style="stop-color:#2574A8"/>
	<stop  offset="0.4976" style="stop-color:#5E93B5"/>
	<stop  offset="0.7512" style="stop-color:#3097DB"/>
	<stop  offset="1" style="stop-color:#20638F"/>
</linearGradient>
<path fill-rule="evenodd" clip-rule="evenodd" fill="url(#SVGID_1_)" d="M622.305,516.38c-1.48-0.42-3.021-0.64-4.66-0.64h-45.03
	c8.97-11.42,16.811-23.78,23.33-36.92c14.11-28.44,22.04-60.521,22.04-94.431c0-117.529-95.29-212.819-212.84-212.819
	c-117.53,0-212.82,95.29-212.82,212.819c0,33.87,7.91,65.87,22,94.301c6.521,13.18,14.38,25.59,23.37,37.05h-45.02
	c-1.41,0-2.79,0.149-4.11,0.49c-6.59,1.59-11.45,6.89-11.45,13.26v85.229c0,7.561,6.99,13.71,15.561,13.71h424.97
	c8.59,0,15.55-6.149,15.55-13.71V529.49C633.194,523.33,628.635,518.13,622.305,516.38z M446.664,581.7h-83.02
	c-60.13-12.561-110.44-51.82-138-104.8c-14.49-27.87-22.66-59.54-22.66-93.101c0-111.64,90.54-202.149,202.17-202.149
	c111.66,0,202.18,90.51,202.18,202.149c0,33.561-8.18,65.23-22.67,93.101C557.135,529.91,506.794,569.14,446.664,581.7z"/>
<g>
	<g>
		<g>
			<path fill-rule="evenodd" clip-rule="evenodd" fill="#FFFFFF" d="M502.979,414.257c-1.241-11.53-10.023-20.968-21.682-23.347
				c-1.457-0.278-2.992-0.466-4.425-1.686c4.671-3.188,9.549-5.602,12.954-10.006c1.762-2.287,3.55-4.568,5.348-6.85
				c0.023-4.011,2.035-7.705,1.509-11.847c-1.397-10.618-6.778-19.171-13.166-27.22c-6.842-8.577-11.978-17.717-11.302-29.422
				c0.252-4.254,0.698-8.494,0.858-12.752c0.095-2.517-0.865-4.508-3.311-5.355c-2.256-0.779-4.268-0.486-6.034,1.504
				c-3.595,4.068-7.708,7.629-10.896,12.058c-2.079,2.875-3.544,1.984-4.639-0.671c-1.495-3.69-2.79-7.479-4.253-11.193
				c-2.512-6.343-4.215-13.248-10.997-16.602c-0.349-0.293-0.698-0.564-1.054-0.822c-2.541-1.197-5.057-1.559-7.592,0.04
				c-1.097,0.447-1.598,1.337-1.693,2.507c-0.074,0.705,0.318,1.125,0.832,1.473c0.752,0.904,2.595-0.021,2.777,1.453
				c0.309,2.482,2.208,2.896,3.897,3.332c3.264,0.832,4.549,3.006,5.299,6.168c1.177,4.95,1.31,10.145,3.229,14.881
				c3.512,8.645-1.348,14.13-7.832,17.549c-3.04,1.611-7.558,0.147-8.682-3.283c-1.125-3.426,1.88-6.746,2.738-9.866
				c0.896-3.271,0.498-6.576-0.19-9.837c-0.244-1.166-0.435-2.512-0.929-3.604c-0.162-0.357-2.323-2.952-2.323-2.888
				c0.02-0.095,0.04-0.202,0.067-0.302c-0.25-1.109-1.095-1.674-1.975-2.199c-3.66-2.172-8.876,0.027-11.038,3.254
				c-2.684,4.023-3.27,8.349-2.122,12.968c0.915,3.758,4.95,10.041,1.718,13.489c-1.384,1.477-3.029,2.488-4.873,1.748
				c-4.088-1.645-7.348-4.536-9.96-8.118c-1.067-1.485-0.668-3.269-0.436-5.043c0.766-5.949,2.377-11.737,3.359-17.654
				c0.493-2.979,1.517-5.644,3.315-8.006c0.026-0.206,0.026-0.411,0.052-0.603c1.406-0.316,2.816-0.632,4.22-0.945
				c0.818-0.943,3.957-1.27,0.818-3.244c1.017,0.414,1.667-0.537,2.524-0.723c1.31-0.236,2.762-0.688,2.494-2.373
				c-0.247-1.524-1.886-1.09-2.925-1.385c-4.097-1.185-7.228,1.674-10.797,2.771c-2.877,0.639-3.484,3.194-4.501,5.468
				c-2.036,4.567-3.026,9.493-5.383,14.009c-2.358,4.509-4.855,9.162-5.257,14.51c-1.093,6.889,2.898,11.619,6.734,16.398
				c1.337,1.275,2.822,2.37,4.357,3.371c2.104,1.368,4.438,2.459,6.311,4.207c0.855,0.805,1.633,1.707,2.019,2.843
				c0.755,2.276,1.002,4.698,1.645,7.009c0.592,2.066,1.308,4.082,1.833,6.174c1.021,4.17,0.52,8.031-1.241,11.906
				c-1.279,2.791-3.188,5.229-3.837,8.309c-1.072,4.979-4.07,7.29-8.582,8.479c-8.014,2.078-14.307,8.249-22.439,10.12
				c-0.379,0.119-0.754,0.263-1.115,0.441c-9.415,2.25-18.822,2.594-28.217-0.14c-8.996-2.193-16.744-6.179-21.199-15.034
				c-1.521-3.254-3.044-6.574-3.515-10.168c-1.731-13.304-1.266-26.398,3.858-39c2.988-9.129,4.554-18.584,6.112-28.045
				c1.034-9.801,0.259-19.351-3.628-28.499c-0.13-0.404-0.283-0.798-0.469-1.169c-1.139-2.387-2.098-4.811-2.937-7.316
				c-0.116-0.343-0.242-0.693-0.392-1.033c-0.423-0.973-0.899-1.928-1.204-2.951c-0.319-1.133-1.055-2.496-0.155-3.398
				c1.252-1.279,2.236,0.527,3.385,0.827c9.199,2.415,16.602,8.304,24.551,13.14c9.146,5.553,16.26,13.807,24.979,19.953
				c0.453,0.322,0.907,0.678,1.347,1.027c3.104,2.448,5.234,6.06,8.862,7.834c1.649,0.813,3.592,1.869,4.964-0.145
				c1.376-2.016,0.188-3.703-1.384-5.217c-8.087-7.713-15.396-16.31-24.395-23.014c-3.806-2.594-7.15-5.881-11.057-8.269
				c-4.543-2.774-8.422-6.808-13.76-8.222c-1.486-0.818-3.002-1.568-4.44-2.462c-5.494-3.45-11.344-5.822-17.872-6.28
				c-3.249-0.246-4.68,1.279-5.358,4.363c-0.995,4.533,0.521,8.648,1.677,12.84c0.686,1.876,0.768,3.932,1.898,5.656
				c4.332,6.678,6.443,14.148,6.992,22.037c0.617,8.643,0.487,17.268-2.945,25.453c-0.223,2.291-1.42,4.27-2.097,6.414
				c-2.017,6.443-3.081,13.205-6.069,19.311c-0.598,1.215-0.705,2.559-1.034,3.832c-1.306,5.19-1.571,10.566-1.587,15.796
				c-0.065,10.229,3.664,19.66,9.981,27.53c4.397,5.479,9.899,10.704,16.495,13.193c7.076,2.67,14.957,3.26,22.428,3.029
				c1.564-0.046,2.942-1.475,4.076-0.898c-5.604,1.826-10.811,4.925-15.164,9.574c-4.684,4.072-8.766,8.701-12.393,13.778
				c-4.76,6.134-6.698,13.38-7.113,20.958c-0.558,10.205,1.816,19.148,6.785,28.035c3.487,6.256,10.549,9.697,16.727,12.574
				c8.387,3.926,17.938,4.574,26.967,3.143c8.304-1.326,15.277-5.418,22.231-10.041c3.054-2.031,6.853-5.566,10.274-6.57
				c-0.253,0.064,4.284,12.223,4.709,13.236c1.424,3.277,2.714,6.633,4.572,9.703c0.991,1.625,1.276,2.203,2.911,1.021
				c2.143-1.574,4.931-6.336,5.857-8.789c1.431-3.846,2.671-7.859,3.704-11.834c2.048-7.898,2.379-15.414,2.215-23.496
				c-0.061-4.086-1.713-7.943-2.378-11.928c-0.716-4.24,0.554-7.723,1.592-11.761c0.804-3.187,1.133-6.669,2.456-9.689
				c3.733,5.587,6.496,11.644,10.887,16.831c4.505,5.324,10.013,9.564,16.546,11.939c10.095,4.82,20.239,5.674,30.684,0.998
				C498.162,438.254,504.414,427.504,502.979,414.257z M391.869,381.863c1.045-0.51,2.891-1.609,3.206,0.215
				c0.291,1.652,1.614,4.443-1.673,5.225c-4.885,1.159-9.84,1.732-15.017,1.485L391.869,381.863z M388.938,461.008
				c-2.133,1.875-4.67,2.951-7.234,3.979c-9.968,5.428-20.341,8.48-31.689,5.691c-3.078-0.748-5.985-1.953-8.439-4.09
				c-8.007-4.834-11.857-12.514-13.052-21.488c-1.711-12.93,1.923-24.225,11.449-33.258c8.587-8.209,19.188-11.719,30.456-13.75
				c8.239-2.733,16.786-3.049,25.34-3.317c1.673-0.044,1.854,1.16,2.171,2.254c1.812,6.136,3.859,12.216,6.071,18.198
				c1.87,5.059,4.725,10.75,3.697,16.316c-0.492,2.672-1.958,5.145-2.74,7.752c-1.217,3.99-1.707,8.391-4.227,11.824
				C397.473,455.59,392.888,457.52,388.938,461.008z M428.559,360.008c-0.488-0.914-1.493-1.857-1.709-2.887
				c-0.35-1.561,0.092-3.617,0.24-5.203c0.193-2.048,0.434-4.092,0.699-6.135c0.465-3.697,1.255-7.484,3.382-10.582
				c2.168-3.14,5.224-5.451,8.035-7.929c5.395-4.742,9.997-10.175,14.182-16.022c1.868-2.588,3.586-5.287,5.554-7.783
				c0.785-0.988,2.212-3.051,3.705-2.686c1.552,0.385,2.228,3.111,2.665,4.384c1.118,3.31,2.008,6.712,3.04,10.042
				c2.514,8.008,5.712,15.691,9.885,22.949c3.135,5.443,7.087,10.715,8.813,16.871c1.571,5.52,1.056,11.575-1.388,16.756
				c-6.533,13.75-22.927,11.666-35.318,14.02c-4.278,0.814-12.45,2.547-13.649,7.85c-1.215,5.387,7.069,6.609,10.495,6.794
				c8.171,0.408,16.224-1.845,24.23-3.237c5.844-1.01,12.919-2.027,17.797,2.289c4.344,3.842,5.843,10.432,5.873,16.057
				c0.032,5.718-1.714,11.547-6.252,15.164c-4.978,3.967-11.85,4.791-17.95,4.613c-7.196-0.215-14.567-1.949-20.836-5.676
				c-12.826-7.619-16.244-22.08-15.126-36.313c0.466-5.851,1.878-10.98,0.323-16.84c-0.377-1.484,0.189-2.45-1.802-4.259
				 M454.111,392.505c-2.465,1.173-4.958,1.815-7.57,1.776c-0.597-0.02-1.43,0.516-1.622-0.437
				c-0.218-1.103,0.698-1.308,1.495-1.323C448.982,392.479,451.544,392.505,454.111,392.505z"/>
			<path fill-rule="evenodd" clip-rule="evenodd" fill="#FFFFFF" d="M342.382,465.818c-0.102,0.098-0.181,0.193-0.298,0.287
				c-0.166,0.16-0.341,0.32-0.51,0.482c0.214-0.145,0.493-0.219,0.67-0.41C342.317,466.092,342.371,465.975,342.382,465.818z"/>
		</g>
		<g>
			<path fill="#FFFFFF" d="M489.101,538.182c0,0-0.091,0.014-0.28,0.027c-0.211,0.033-0.508,0.061-0.865,0.061
				c-0.713,0.061-1.738,0.102-3.013,0.102c-2.563,0.018-6.177-0.154-10.448-0.762c-2.143-0.32-4.445-0.721-6.854-1.311
				c-2.406-0.535-4.922-1.287-7.483-2.146c-1.286-0.465-2.589-0.898-3.88-1.451c-0.64-0.271-1.3-0.531-1.944-0.805
				c-0.651-0.299-1.306-0.6-1.937-0.893c-1.317-0.568-2.582-1.297-3.888-1.939c-1.271-0.721-2.545-1.438-3.792-2.199
				c-2.488-1.574-4.93-3.236-7.206-5.074c-0.566-0.453-1.129-0.902-1.704-1.35c-0.538-0.482-1.079-0.973-1.623-1.441
				c-0.536-0.479-1.079-0.943-1.602-1.426c-0.516-0.498-1.021-0.994-1.521-1.482c-0.496-0.502-0.988-0.984-1.473-1.475
				c-0.476-0.51-0.938-1.018-1.395-1.523c-0.454-0.5-0.908-0.99-1.364-1.484c-0.435-0.496-0.844-1.018-1.262-1.521
				c-1.685-1.975-3.107-4.01-4.458-5.844c-0.637-0.945-1.228-1.859-1.807-2.744c-0.584-0.859-1.11-1.689-1.584-2.508
				c-0.461-0.807-0.909-1.563-1.317-2.266c-0.199-0.34-0.394-0.676-0.583-1c-0.176-0.326-0.327-0.648-0.488-0.941
				c-1.248-2.393-1.95-3.758-1.95-3.758s0.823,1.264,2.263,3.494c0.184,0.291,0.376,0.58,0.573,0.879
				c0.203,0.299,0.423,0.609,0.659,0.932c0.478,0.639,0.979,1.334,1.515,2.074c0.502,0.742,1.103,1.506,1.765,2.297
				c0.634,0.781,1.31,1.609,1.998,2.467c1.488,1.65,3.047,3.455,4.847,5.164c0.444,0.438,0.885,0.9,1.357,1.324
				c0.471,0.42,0.945,0.857,1.431,1.277c0.485,0.432,0.971,0.865,1.456,1.307c0.525,0.41,1.031,0.828,1.57,1.24
				c0.506,0.416,1.031,0.832,1.556,1.254c0.553,0.389,1.104,0.783,1.657,1.184c0.545,0.393,1.104,0.787,1.668,1.172
				c0.58,0.375,1.147,0.736,1.732,1.1c2.304,1.488,4.744,2.775,7.21,3.977c1.231,0.58,2.483,1.111,3.738,1.635
				c1.262,0.457,2.5,0.998,3.771,1.377c0.626,0.213,1.245,0.42,1.879,0.621c0.624,0.186,1.244,0.35,1.873,0.535
				c1.231,0.371,2.492,0.625,3.704,0.924c2.438,0.498,4.826,0.92,7.076,1.152c2.262,0.279,4.409,0.398,6.374,0.455
				c3.954,0.096,7.225-0.148,9.462-0.422c1.123-0.141,1.99-0.277,2.555-0.373c0.281-0.063,0.486-0.102,0.595-0.125
				c0.143-0.039,0.213-0.047,0.213-0.047L489.101,538.182z"/>
			<path fill="#FFFFFF" d="M337.668,538.182c0,0,0.092,0.014,0.286,0.027c0.22,0.033,0.511,0.061,0.854,0.061
				c0.72,0.061,1.745,0.102,3.003,0.102c2.579,0.018,6.188-0.154,10.466-0.762c2.14-0.32,4.44-0.721,6.853-1.311
				c2.404-0.535,4.92-1.287,7.49-2.146c1.271-0.465,2.58-0.898,3.867-1.451c0.637-0.271,1.295-0.531,1.948-0.805
				c0.638-0.299,1.288-0.6,1.945-0.893c1.306-0.568,2.575-1.297,3.876-1.939c1.266-0.721,2.545-1.438,3.799-2.199
				c2.487-1.574,4.926-3.236,7.203-5.074c0.559-0.453,1.132-0.902,1.697-1.35c0.547-0.482,1.091-0.973,1.636-1.441
				c0.538-0.479,1.065-0.943,1.595-1.426c0.52-0.498,1.016-0.994,1.517-1.482c0.498-0.502,0.988-0.984,1.485-1.475
				c0.47-0.51,0.934-1.018,1.391-1.523c0.448-0.5,0.9-0.99,1.352-1.484c0.44-0.496,0.845-1.018,1.265-1.521
				c1.692-1.975,3.11-4.01,4.461-5.844c0.628-0.945,1.234-1.859,1.812-2.744c0.587-0.859,1.118-1.689,1.583-2.508
				c0.47-0.807,0.904-1.563,1.319-2.266c0.195-0.34,0.394-0.676,0.574-1c0.172-0.326,0.343-0.648,0.497-0.941
				c1.236-2.393,1.938-3.758,1.938-3.758s-0.825,1.264-2.264,3.494c-0.176,0.291-0.369,0.58-0.562,0.879
				c-0.214,0.299-0.435,0.609-0.665,0.932c-0.462,0.639-0.971,1.334-1.514,2.074c-0.511,0.742-1.111,1.506-1.767,2.297
				c-0.622,0.781-1.303,1.609-2.002,2.467c-1.475,1.65-3.029,3.455-4.841,5.164c-0.45,0.438-0.894,0.9-1.344,1.324
				c-0.474,0.42-0.955,0.857-1.446,1.277c-0.479,0.432-0.969,0.865-1.466,1.307c-0.509,0.41-1.031,0.828-1.54,1.24
				c-0.526,0.416-1.055,0.832-1.561,1.254c-0.573,0.389-1.105,0.783-1.657,1.184c-0.564,0.393-1.111,0.787-1.686,1.172
				c-0.566,0.375-1.15,0.736-1.725,1.1c-2.301,1.488-4.755,2.775-7.197,3.977c-1.246,0.58-2.502,1.111-3.75,1.635
				c-1.262,0.457-2.502,0.998-3.773,1.377c-0.621,0.213-1.25,0.42-1.878,0.621c-0.622,0.186-1.257,0.35-1.88,0.535
				c-1.238,0.371-2.482,0.625-3.701,0.924c-2.447,0.498-4.82,0.92-7.082,1.152c-2.248,0.279-4.402,0.398-6.367,0.455
				c-3.953,0.096-7.211-0.148-9.463-0.422c-1.116-0.141-1.981-0.277-2.551-0.373c-0.285-0.063-0.49-0.102-0.596-0.125
				c-0.135-0.039-0.215-0.047-0.215-0.047L337.668,538.182z"/>
		</g>
	</g>
	<g>
		<path fill="#FFFFFF" d="M243.859,529.857v82.656h-14.047v-82.656H243.859z"/>
		<path fill="#FFFFFF" d="M277.604,542.488h-21.93v-12.631h58.131v12.631h-22.146v70.025h-14.056V542.488z"/>
		<path fill="#FFFFFF" d="M325.754,530.963c6.168-1.105,14.055-1.719,22.388-1.719c14.394,0,24.327,3.189,31.402,9.563
			c7.433,6.508,11.999,16.314,11.999,30.412c0,14.721-4.691,25.762-11.999,32.871c-7.647,7.482-19.876,11.281-34.827,11.281
			c-8.229,0-14.398-0.488-18.963-1.104V530.963z M339.809,600.986c1.932,0.367,4.908,0.367,7.764,0.367
			c18.271,0.123,29.122-10.672,29.122-31.639c0.112-18.27-9.717-28.697-27.298-28.697c-4.454,0-7.656,0.365-9.588,0.855V600.986z"/>
		<path fill="#FFFFFF" d="M449.752,575.846h-29.001v24.277h32.431v12.391h-46.489v-82.656h44.767v12.385h-30.708v21.34h29.001
			V575.846z"/>
		<path fill="#FFFFFF" d="M474.201,529.857h14.062v70.025h31.616v12.631h-45.678V529.857z"/>
		<path fill="#FFFFFF" d="M549.309,589.09l-6.626,23.424h-14.505l24.678-82.656h17.925l25.009,82.656H580.71l-6.964-23.424H549.309z
			 M571.35,577.684l-6.059-20.357c-1.475-5.021-2.734-10.666-3.873-15.453h-0.233c-1.15,4.787-2.281,10.549-3.653,15.453
			l-5.939,20.357H571.35z"/>
	</g>
</g>
</svg>
