<?xml version="1.0" encoding="UTF-8" standalone="no"?>
<!-- Created with Inkscape (http://www.inkscape.org/) -->

<svg
   xmlns:osb="http://www.openswatchbook.org/uri/2009/osb"
   xmlns:dc="http://purl.org/dc/elements/1.1/"
   xmlns:cc="http://creativecommons.org/ns#"
   xmlns:rdf="http://www.w3.org/1999/02/22-rdf-syntax-ns#"
   xmlns:svg="http://www.w3.org/2000/svg"
   xmlns="http://www.w3.org/2000/svg"
   xmlns:sodipodi="http://sodipodi.sourceforge.net/DTD/sodipodi-0.dtd"
   xmlns:inkscape="http://www.inkscape.org/namespaces/inkscape"
   width="255"
   height="255"
   viewBox="0 0 255 255"
   id="svg2"
   version="1.1"
   inkscape:version="0.91 r13725"
   sodipodi:docname="logo3.svg"
   inkscape:export-filename="D:\logo2.png"
   inkscape:export-xdpi="88"
   inkscape:export-ydpi="88">
  <defs
     id="defs4">
    <linearGradient
       id="linearGradient4142"
       osb:paint="solid">
      <stop
         style="stop-color:#06780f;stop-opacity:1;"
         offset="0"
         id="stop4144" />
    </linearGradient>
  </defs>
  <sodipodi:namedview
     id="base"
     pagecolor="#ffffff"
     bordercolor="#666666"
     borderopacity="1.0"
     inkscape:pageopacity="0.0"
     inkscape:pageshadow="2"
     inkscape:zoom="1.28"
     inkscape:cx="-41.811731"
     inkscape:cy="154.81963"
     inkscape:document-units="px"
     inkscape:current-layer="layer1"
     showgrid="false"
     showguides="false"
     inkscape:guide-bbox="true"
     units="px"
     inkscape:window-width="1366"
     inkscape:window-height="706"
     inkscape:window-x="-8"
     inkscape:window-y="-8"
     inkscape:window-maximized="1">
    <sodipodi:guide
       position="371.73614,892.97487"
       orientation="0,1"
       id="guide4140" />
  </sodipodi:namedview>
  <metadata
     id="metadata7">
    <rdf:RDF>
      <cc:Work
         rdf:about="">
        <dc:format>image/svg+xml</dc:format>
        <dc:type
           rdf:resource="http://purl.org/dc/dcmitype/StillImage" />
        <dc:title />
      </cc:Work>
    </rdf:RDF>
  </metadata>
  <g
     inkscape:label="Capa 1"
     inkscape:groupmode="layer"
     id="layer1"
     transform="translate(0,-797.36207)">
    <flowRoot
       xml:space="preserve"
       id="flowRoot4156"
       style="font-style:normal;font-weight:normal;font-size:40px;line-height:125%;font-family:sans-serif;letter-spacing:0px;word-spacing:0px;fill:#000000;fill-opacity:1;stroke:none;stroke-width:1px;stroke-linecap:butt;stroke-linejoin:miter;stroke-opacity:1"><flowRegion
         id="flowRegion4158"><rect
           id="rect4160"
           width="161.6244"
           height="75.761444"
           x="105.05586"
           y="1190.7531" /></flowRegion><flowPara
         id="flowPara4162" /></flowRoot>    <flowRoot
       xml:space="preserve"
       id="flowRoot4164"
       style="font-style:normal;font-weight:normal;font-size:40px;line-height:125%;font-family:sans-serif;letter-spacing:0px;word-spacing:0px;fill:#000000;fill-opacity:1;stroke:none;stroke-width:1px;stroke-linecap:butt;stroke-linejoin:miter;stroke-opacity:1"><flowRegion
         id="flowRegion4166"><rect
           id="rect4168"
           width="189.90868"
           height="360.62445"
           x="252.53813"
           y="1192.7734" /></flowRegion><flowPara
         id="flowPara4170" /></flowRoot>    <flowRoot
       xml:space="preserve"
       id="flowRoot4172"
       style="font-style:normal;font-weight:normal;font-size:40px;line-height:125%;font-family:sans-serif;letter-spacing:0px;word-spacing:0px;fill:#000000;fill-opacity:1;stroke:none;stroke-width:1px;stroke-linecap:butt;stroke-linejoin:miter;stroke-opacity:1"><flowRegion
         id="flowRegion4174"><rect
           id="rect4176"
           width="210.11172"
           height="294.96454"
           x="93.944183"
           y="1112.9713" /></flowRegion><flowPara
         id="flowPara4178" /></flowRoot>    <flowRoot
       xml:space="preserve"
       id="flowRoot4180"
       style="font-style:normal;font-weight:normal;font-size:90px;line-height:125%;font-family:sans-serif;letter-spacing:0px;word-spacing:0px;fill:#000000;fill-opacity:1;stroke:none;stroke-width:1px;stroke-linecap:butt;stroke-linejoin:miter;stroke-opacity:1"><flowRegion
         id="flowRegion4182"><rect
           id="rect4184"
           width="217.1828"
           height="202.0305"
           x="138.3909"
           y="1163.479"
           style="font-size:90px" /></flowRegion><flowPara
         id="flowPara4186" /></flowRoot>    <flowRoot
       xml:space="preserve"
       id="flowRoot4196"
       style="font-style:normal;font-variant:normal;font-weight:normal;font-stretch:semi-expanded;font-size:90px;line-height:125%;font-family:Ravie;-inkscape-font-specification:'Ravie Semi-Expanded';letter-spacing:0px;word-spacing:0px;fill:#000000;fill-opacity:1;stroke:none;stroke-width:1px;stroke-linecap:butt;stroke-linejoin:miter;stroke-opacity:1"><flowRegion
         id="flowRegion4198"><rect
           id="rect4200"
           width="190.91884"
           height="200.01021"
           x="135.36044"
           y="1153.3774"
           style="font-style:normal;font-variant:normal;font-weight:normal;font-stretch:semi-expanded;font-size:90px;font-family:Ravie;-inkscape-font-specification:'Ravie Semi-Expanded'" /></flowRegion><flowPara
         id="flowPara4202" /></flowRoot>    <flowRoot
       xml:space="preserve"
       id="flowRoot4204"
       style="font-style:normal;font-weight:normal;font-size:90px;line-height:125%;font-family:sans-serif;letter-spacing:0px;word-spacing:0px;fill:#000000;fill-opacity:1;stroke:none;stroke-width:1px;stroke-linecap:butt;stroke-linejoin:miter;stroke-opacity:1"><flowRegion
         id="flowRegion4206"><rect
           id="rect4208"
           width="193.9493"
           height="201.02036"
           x="212.13203"
           y="1159.4384"
           style="font-size:90px" /></flowRegion><flowPara
         id="flowPara4210" /></flowRoot>    <flowRoot
       xml:space="preserve"
       id="flowRoot4220"
       style="font-style:normal;font-variant:normal;font-weight:bold;font-stretch:normal;font-size:40px;line-height:125%;font-family:'Script MT Bold';-inkscape-font-specification:'Script MT Bold,  Bold';letter-spacing:0px;word-spacing:0px;fill:#000000;fill-opacity:1;stroke:none;stroke-width:1px;stroke-linecap:butt;stroke-linejoin:miter;stroke-opacity:1"><flowRegion
         id="flowRegion4222"><rect
           id="rect4224"
           width="219.20311"
           height="262.63965"
           x="474.7717"
           y="1159.4384"
           style="font-style:normal;font-variant:normal;font-weight:bold;font-stretch:normal;font-family:'Script MT Bold';-inkscape-font-specification:'Script MT Bold,  Bold'" /></flowRegion><flowPara
         id="flowPara4226" /></flowRoot>    <flowRoot
       xml:space="preserve"
       id="flowRoot4232"
       style="font-style:normal;font-weight:normal;font-size:40px;line-height:125%;font-family:sans-serif;letter-spacing:0px;word-spacing:0px;fill:#000000;fill-opacity:1;stroke:none;stroke-width:1px;stroke-linecap:butt;stroke-linejoin:miter;stroke-opacity:1"><flowRegion
         id="flowRegion4234"><rect
           id="rect4236"
           width="420.22345"
           height="460.62955"
           x="0"
           y="1088.7277" /></flowRegion><flowPara
         id="flowPara4238" /></flowRoot>    <flowRoot
       xml:space="preserve"
       id="flowRoot4248"
       style="font-style:normal;font-weight:normal;font-size:40px;line-height:125%;font-family:sans-serif;letter-spacing:0px;word-spacing:0px;fill:#000000;fill-opacity:1;stroke:none;stroke-width:1px;stroke-linecap:butt;stroke-linejoin:miter;stroke-opacity:1"><flowRegion
         id="flowRegion4250"><rect
           id="rect4252"
           width="448.50772"
           height="276.7818"
           x="246.47722"
           y="1054.3826" /></flowRegion><flowPara
         id="flowPara4254" /></flowRoot>    <flowRoot
       xml:space="preserve"
       id="flowRoot4178"
       style="fill:black;stroke:none;stroke-opacity:1;stroke-width:1px;stroke-linejoin:miter;stroke-linecap:butt;fill-opacity:1;font-family:sans-serif;font-style:normal;font-weight:normal;font-size:40px;line-height:125%;letter-spacing:0px;word-spacing:0px"><flowRegion
         id="flowRegion4180"><rect
           id="rect4182"
           width="428.125"
           height="300"
           x="-1640.625"
           y="-229.375" /></flowRegion><flowPara
         id="flowPara4184"></flowPara></flowRoot>    <g
       id="g4207">
      <path
         inkscape:export-ydpi="88"
         inkscape:export-xdpi="88"
         transform="matrix(-0.33810069,-0.05498249,0.05579386,-0.3331839,227.49543,1109.8612)"
         inkscape:transform-center-y="4.799165"
         inkscape:transform-center-x="0.094663228"
         d="M 77.142814,606.64793 C 4.2503391,426.15229 -0.46911223,498.67788 95.200345,329.15106 190.8698,159.62424 131.22448,201.15339 323.41482,170.25254 515.60516,139.35168 445.94811,118.6121 589.93609,249.60619 733.92406,380.60028 706.70847,313.20929 694.0682,507.4571 681.42792,701.70491 717.14768,638.40931 557.39754,749.63827 397.64741,860.86724 469.40481,849.3299 282.83992,793.78235 96.275032,738.23479 150.03529,787.14357 77.142814,606.64793 Z"
         inkscape:randomized="0"
         inkscape:rounded="0.7"
         inkscape:flatsided="true"
         sodipodi:arg2="3.206574"
         sodipodi:arg1="2.757775"
         sodipodi:r2="288.72345"
         sodipodi:r1="320.45886"
         sodipodi:cy="486.64792"
         sodipodi:cx="374.28568"
         sodipodi:sides="7"
         id="path4136"
         style="fill:#ffffff;fill-opacity:1;stroke:#43c28f;stroke-width:53;stroke-linecap:butt;stroke-linejoin:round;stroke-miterlimit:4;stroke-dasharray:none;stroke-opacity:1"
         sodipodi:type="star" />
      <path
         inkscape:connector-curvature="0"
         id="path4329"
         d="m 191.64906,889.12523 c -0.76939,-0.19816 -0.86131,-0.95822 -0.86131,-7.12075 l 0,-6.89894 1.86648,-1.79604 1.86641,-1.79602 5.99124,0 c 6.8976,0 7.01021,-0.07 7.01021,-4.36527 0,-4.02279 -0.37973,-4.36524 -4.84075,-4.36524 -4.30663,0 -5.00298,0.38792 -5.00298,2.78684 l 0,1.62274 -3.32224,-0.14341 -3.32227,-0.14341 -0.13134,-2.42514 c -0.12427,-2.29569 -0.0105,-2.54817 2.13443,-4.72906 l 2.26574,-2.30387 7.1644,0 7.16441,0 2.39057,2.35587 2.39064,2.35581 0,5.41545 0,5.41545 -2.03143,2.17179 -2.03143,2.17179 -6.03697,0 c -6.81674,0 -6.63451,-0.10767 -6.63451,3.91992 l 0,2.38546 8.06839,0 c 8.95805,0 8.66595,-0.11408 8.66595,3.38299 0,1.23822 -0.25703,1.94576 -0.77852,2.14291 -0.88604,0.33511 -20.66847,0.29915 -21.98512,-0.0399 z"
         style="fill:#faba0c;fill-opacity:1" />
      <path
         inkscape:connector-curvature="0"
         id="path4205"
         d="m 158.62962,1014.4442 c -2.81118,-1.9025 -7.07721,-6.5174 -9.48007,-10.2554 -3.65704,-5.68916 -4.35363,-7.96593 -4.2759,-13.97506 0.0972,-7.51003 6.47117,-27.4455 13.16259,-41.16765 1.90263,-3.90174 8.35703,-16.99034 14.34308,-29.08582 11.47913,-23.19476 13.87579,-29.79518 10.81877,-29.79518 -6.5144,0 -41.40041,55.34608 -45.61016,72.35977 -2.10172,8.49405 -2.76966,9.12291 -7.0381,6.62651 -8.28036,-4.8428 -15.3203,-16.51289 -13.73931,-22.77559 0.41721,-1.65272 6.4221,-16.11566 13.3442,-32.13981 13.09066,-30.30408 15.66406,-38.25911 12.37664,-38.25911 -4.2905,0 -13.80672,16.15929 -30.81161,52.32055 -17.40764,37.01774 -35.120161,68.02671 -39.097366,68.44725 -5.031437,0.53192 -8.009125,-1.76306 -13.840874,-10.66746 -6.508772,-9.93813 -4.647483,-18.17093 9.655323,-42.70639 3.639205,-6.24279 10.990826,-17.58478 16.336881,-25.20436 11.12688,-15.85876 13.048347,-19.69973 18.500696,-36.98204 4.10894,-13.02416 5.12735,-24.60958 2.42836,-27.6249 -10.349219,-11.56212 -44.259575,33.79992 -51.493952,68.88373 -1.166627,5.65752 -2.464887,10.28644 -2.88509,10.28644 -1.88912,0 -9.469997,-9.76128 -11.569953,-14.89764 -3.127835,-7.65067 -2.941477,-14.19084 0.650054,-22.80783 9.554681,-22.92404 52.564039,-52.14683 71.046981,-48.27302 12.5849,2.63762 21.04854,22.53442 16.95844,39.86685 l -1.00444,4.25646 2.1635,-3.54706 c 5.09344,-8.35072 12.49754,-15.607 15.92486,-15.607 7.44872,0 17.32251,14.54556 15.77622,23.24077 -0.43291,2.43443 -2.73743,10.15395 -5.12111,17.15453 -2.38369,7.00057 -4.18777,12.89172 -4.00903,13.09139 0.17874,0.19962 3.71946,-4.83273 7.86829,-11.18307 11.12161,-17.02312 19.67019,-26.69662 23.59212,-26.69662 4.19241,0 13.14363,7.24491 15.65518,12.67093 3.19512,6.9028 2.32684,11.13674 -5.5214,26.92362 -26.76978,53.84801 -32.09279,75.68721 -20.33848,83.44431 5.65133,3.7296 4.27153,6.7089 -3.31603,7.16 -4.87918,0.2901 -7.51448,-0.4193 -11.44931,-3.0821 z M 63.1254,965.71724 c 4.947135,-7.62194 21.940572,-39.51469 23.292098,-43.71386 2.59977,-8.07744 -19.824861,27.9459 -26.328774,42.29503 -4.486095,9.89729 -2.936358,10.62141 3.036676,1.41883 z"
         style="fill:#faba0c;fill-opacity:1" />
    </g>
  </g>
</svg>
